<mxfile host="app.diagrams.net" modified="2023-09-10T02:19:39.916Z" agent="Mozilla/5.0 (X11; Linux x86_64; rv:109.0) Gecko/20100101 Firefox/116.0" etag="jwCzwWuJiFEYe0hvr2fB" version="21.7.4" type="github">
  <diagram name="Page-1" id="jMzRPRjbaH2KJnFxRM37">
    <mxGraphModel dx="1434" dy="741" grid="1" gridSize="10" guides="1" tooltips="1" connect="1" arrows="1" fold="1" page="1" pageScale="1" pageWidth="850" pageHeight="1100" math="0" shadow="0">
      <root>
        <mxCell id="0" />
        <mxCell id="1" parent="0" />
      </root>
    </mxGraphModel>
  </diagram>
</mxfile>
